<svg aria-hidden="true" style="position:absolute;width:0;height:0" xmlns="http://www.w3.org/2000/svg" overflow="hidden"><defs><symbol id="icon-alarm" viewBox="0 0 32 32"><path d="M30.74 10.003c-1.623-3.715-4.528-6.62-8.142-8.204l-.101-.039c1-.787 2.258-1.26 3.629-1.26A5.874 5.874 0 0 1 32 6.374v.003a5.822 5.822 0 0 1-1.269 3.637l.009-.012zM30.5 16.5c0 3.852-1.512 7.343-3.963 9.94l2.029 2.028a1.483 1.483 0 1 1-2.098 2.097l-2.178-2.178A14.305 14.305 0 0 1 16.01 31H16h.001c-3.079 0-5.928-.966-8.276-2.603L5.562 30.56a1.5 1.5 0 1 1-2.122-2.121l2.012-2.012c-2.443-2.595-3.951-6.082-3.951-9.927 0-8.008 6.492-14.5 14.5-14.5s14.5 6.492 14.5 14.5zM16 5C9.649 5 4.5 10.148 4.5 16.5 4.5 22.851 9.649 28 16 28s11.5-5.149 11.5-11.5C27.5 10.148 22.351 5 16 5zm6 13h-6a1.5 1.5 0 0 1-1.5-1.5v-8a1.5 1.5 0 0 1 3 0v6.499H22a1.5 1.5 0 1 1 0 3zM1.287 10.205A5.928 5.928 0 0 1 0 6.504v-.005a6 6 0 0 1 6-6c1.4 0 2.685.483 3.706 1.287-3.795 1.658-6.761 4.624-8.379 8.315l-.04.103z"/></symbol><symbol id="icon-book" viewBox="0 0 32 32"><path d="M31.065 25.889l-14.471 5.988a1.502 1.502 0 0 1-1.198-.003l.009.004L.934 25.89a1.502 1.502 0 0 1-.935-1.389v-23A1.5 1.5 0 0 1 2.082.118l-.01-.004h.001l.002.001.013.005 13.911 5.756L29.926.114A1.5 1.5 0 0 1 31.999 1.5v23c0 .625-.382 1.16-.925 1.385l-.01.004zM14.5 8.503L3 3.744v19.753l11.5 4.759V8.503zM29 3.744L17.5 8.503v19.753L29 23.497V3.744zm-9.121 6.89l5.5-2.5a1.5 1.5 0 0 1 1.251 2.727l-.009.004-5.5 2.5a1.5 1.5 0 0 1-1.251-2.727l.009-.004zm0 5.5l5.5-2.5a1.5 1.5 0 0 1 1.251 2.727l-.009.004-5.5 2.5a1.5 1.5 0 0 1-1.251-2.727l.009-.004zm0 5.5l5.5-2.5a1.5 1.5 0 0 1 1.251 2.727l-.009.004-5.5 2.5a1.5 1.5 0 0 1-1.251-2.727l.009-.004zM6 8c.221 0 .431.048.621.134l5.5 2.5a1.501 1.501 0 1 1-1.252 2.728l.01.004-5.5-2.5A1.5 1.5 0 0 1 6 8.001zm0 5.5c.221 0 .431.048.621.134l5.5 2.5a1.501 1.501 0 1 1-1.252 2.728l.01.004-5.5-2.5A1.5 1.5 0 0 1 6 13.501zM6 19c.221 0 .431.048.621.134l5.5 2.5a1.501 1.501 0 1 1-1.252 2.728l.01.004-5.5-2.5A1.5 1.5 0 0 1 6 19.001z"/></symbol><symbol id="icon-computer" viewBox="0 0 32 32"><path d="M30.452 25.29h-9.806v2.58l2.065 2.066v.516H9.292v-.516l2.065-2.066v-2.58H1.551a1.548 1.548 0 0 1-1.548-1.548V3.097c0-.855.693-1.548 1.548-1.548h28.903c.855 0 1.548.693 1.548 1.548v20.645c0 .855-.693 1.548-1.548 1.548zm-.517-21.677H2.064v17.548h27.871V3.613zm-17.032 7.226c.427 0 .814.173 1.095.453l.969.969 3.034-3.034a1.549 1.549 0 1 1 2.19 2.19l-4.129 4.129a1.544 1.544 0 0 1-2.19 0l-2.065-2.066a1.548 1.548 0 0 1 1.095-2.642z"/></symbol><symbol id="icon-glass" viewBox="0 0 32 32"><path d="M31.105 26.862a2.996 2.996 0 1 1-4.237 4.237l-8.78-8.78a11.767 11.767 0 0 1-6.075 1.669h-.002C5.393 23.988.028 18.623.028 12.005S5.393.022 12.011.022s11.983 5.365 11.983 11.983c0 2.242-.62 4.34-1.698 6.13l.03-.054 8.78 8.78zM12.011 3.018a8.987 8.987 0 0 0 0 17.974 8.987 8.987 0 0 0 0-17.974z"/></symbol><symbol id="icon-home" viewBox="0 0 32 32"><path d="M32 16.5a1.5 1.5 0 0 1-1.5 1.499c-.395 0-.754-.154-1.021-.406l.001.001-.003.004L16 4.122 2.553 17.568A1.5 1.5 0 1 1 .46 15.42l.001-.001L14.919.96C15.192.677 15.575.5 16 .5h.001c.026 0 .052 0 .079.002l.012.001.068.005.004.001c.367.04.694.212.933.468l.001-.001L23 6.878V5.5a1.5 1.5 0 0 1 3 0v4.378l5.598 5.598-.004.004c.25.268.406.625.406 1.02zM29 19v10.5a1.5 1.5 0 0 1-1.5 1.5h-3V19h-6v12h-14A1.5 1.5 0 0 1 3 29.5V19L16 6l13 13zm-15.5 0h-6v6h6v-6z"/></symbol><symbol id="icon-image" viewBox="0 0 32 32"><path d="M30.5 32h-29A1.5 1.5 0 0 1 0 30.5v-29A1.5 1.5 0 0 1 1.5 0h29A1.5 1.5 0 0 1 32 1.5v29a1.5 1.5 0 0 1-1.5 1.5zM29 3H3v26h26V3zM6.5 4.5H12a1.5 1.5 0 0 1 0 3H7.5V12a1.5 1.5 0 0 1-3 0V4.5h2zM4.5 20a1.5 1.5 0 0 1 3 0v4.499l4.5.001a1.5 1.5 0 0 1 0 3H4.5V20zM20 4.5h7.5V12a1.5 1.5 0 0 1-3 0V7.5H20a1.5 1.5 0 0 1 0-3zm0 20v-.001h4.5V20a1.5 1.5 0 0 1 3 0v7.5H20a1.5 1.5 0 0 1 0-3z"/></symbol><symbol id="icon-line-graph" viewBox="0 0 32 32"><path d="M30.5 32h-29A1.5 1.5 0 0 1 0 30.5V1.499A1.5 1.5 0 0 1 1.5 0h29A1.5 1.5 0 0 1 32 1.499V30.5a1.5 1.5 0 0 1-1.5 1.5zM29 3H3v26h26V3zM5.215 16.239v-.002l4-2.498a1.49 1.49 0 0 1 1.63.038l-.005-.003.006-.008 6.631 4.42 7.638-5.391a1.5 1.5 0 0 1 1.766 2.423l-.003.003h.001l-8.501 6c-.246.179-.55.284-.878.284-.321 0-.618-.101-.861-.272l-6.657-4.438-3.135 1.96a1.5 1.5 0 0 1-1.637-2.513l.005-.003z"/></symbol><symbol id="icon-shopping-cart" viewBox="0 0 32 32"><path d="M31.194 9.076l.002.002-4.403 9.784a1.468 1.468 0 0 1-1.235.861h-.004l-12.68.845.733 2.094h13.806a2.935 2.935 0 1 1-2.935 2.935H10.781a2.935 2.935 0 1 1-2.935-2.935h2.652L4.848 6.519H1.486a1.468 1.468 0 0 1 0-2.936h4.403c.64 0 1.179.413 1.38.985l.005-.002.854 2.441h21.73a1.468 1.468 0 0 1 1.332 2.078l.004-.009zm-22.038.866l2.713 7.75 12.61-.84 3.109-6.911H9.156z"/></symbol><symbol id="icon-facebook" viewBox="0 0 17 32"><path d="M14.444 2.426v4.546s-3.352-.333-4.192.951c-.459.702-.186 2.759-.227 4.235h4.447c-.376 1.726-.646 2.895-.922 4.39h-3.549v14.129H3.84V16.604H1.22V12.16h2.592c.132-3.251.182-6.471 1.798-8.11 1.814-1.843 3.545-1.622 8.833-1.622z"/></symbol><symbol id="icon-instagram" viewBox="0 0 32 32"><path d="M27.086 30.629H5.143a3.657 3.657 0 0 1-3.657-3.657V5.029a3.657 3.657 0 0 1 3.657-3.657h21.943a3.657 3.657 0 0 1 3.657 3.657v21.943a3.657 3.657 0 0 1-3.657 3.657zM16.114 10.331a5.665 5.665 0 0 0-5.126 3.257l-.015.035h-.006l-.025.062a4.604 4.604 0 0 0-.134.328l-.013.039c-.023.061-.046.119-.065.178-.03.088-.068.217-.1.349l-.008.039c-.016.061-.034.121-.048.183a4.833 4.833 0 0 0-.067.392l-.003.029c-.008.057-.019.113-.026.171a5.669 5.669 0 1 0 11.268-.026l.002.026c-.006-.058-.017-.114-.025-.171a5.825 5.825 0 0 0-.076-.458l.007.037c-.014-.062-.032-.122-.048-.183a5.25 5.25 0 0 0-.12-.429l.011.04c-.019-.059-.043-.118-.065-.178a4.884 4.884 0 0 0-.161-.401l.014.036-.025-.064h-.006c-.92-1.958-2.875-3.289-5.14-3.29zm11.337-4.205c0-.808-.655-1.463-1.463-1.463h-2.926c-.808 0-1.463.655-1.463 1.463v2.926c0 .808.655 1.463 1.463 1.463h2.926c.808 0 1.463-.655 1.463-1.463V6.126zm0 7.497h-2.697A8.75 8.75 0 0 1 25.075 16a8.96 8.96 0 0 1-8.96 8.96h-.002a8.96 8.96 0 0 1-8.624-11.4l-.015.063H4.777v12.251c0 .808.655 1.463 1.463 1.463h19.749c.808 0 1.463-.655 1.463-1.463V13.623z"/></symbol><symbol id="icon-pinterest" viewBox="0 0 25 32"><path d="M11.09 19.701c-.23.919-.462 1.882-.703 2.825-.237.929-.447 1.871-.792 2.726-.573 1.414-1.3 2.781-2.254 3.885-.634.736-.5.441-.691.403-.146-.031-.158-.173-.188-.381-.154-1.123-.049-2.422.009-3.686.066-1.438.369-2.634.65-3.829.534-2.278 1.044-4.51 1.583-6.802.035-.152.132-.404.099-.491-.245-.637-.404-1.208-.473-1.876a5.983 5.983 0 0 1 .163-2.187l-.009.042c.305-1.167 1.006-2.201 2.089-2.58.689-.238 1.451-.13 1.914.146.477.286.804.736.957 1.375.163.679.043 1.49-.088 2.087-.295 1.345-.682 2.355-1.034 3.652-.174.643-.372 1.304-.21 1.999.151.638.483 1.077.936 1.407.47.342 1.026.53 1.793.502 1.355-.047 2.296-.914 2.925-1.73 1.007-1.308 1.617-3.072 1.848-5.171.074-.678.129-1.455.077-2.222-.097-1.417-.541-2.557-1.244-3.439-.669-.842-1.618-1.512-2.772-1.887-1.144-.375-2.728-.499-4.135-.258-2.558.438-4.361 1.891-5.423 3.898a7.71 7.71 0 0 0-.924 3.685v.082-.004c0 1.159.287 2.058.748 2.759.147.222.362.405.505.659.204.36-.031.895-.132 1.284-.121.469-.132 1.117-.681 1.128-.227.004-.512-.161-.704-.268-1.44-.796-2.314-2.243-2.673-4.12-.104-.537-.163-1.155-.163-1.786s.059-1.249.173-1.848l-.01.061c.21-1.067.6-2.05 1.034-2.848a10.278 10.278 0 0 1 3.769-3.906l.047-.026c1.231-.728 2.621-1.239 4.311-1.485a17.207 17.207 0 0 1 1.741-.145l.03-.001a10.598 10.598 0 0 1 4.841.921l-.067-.027a9.821 9.821 0 0 1 3.281 2.36l.007.008c.925 1.01 1.598 2.185 2.024 3.651.223.764.439 1.58.439 2.524 0 .947-.2 1.78-.34 2.613-.523 3.121-2.007 5.673-4.235 7.126a7.174 7.174 0 0 1-1.884.879l-.052.013c-.736.214-1.576.375-2.475.312a5.057 5.057 0 0 1-2.213-.65l.025.013c-.596-.337-1.097-.749-1.452-1.373z"/></symbol><symbol id="icon-twitter" viewBox="0 0 37 32"><path d="M24.684 2.135c2.712-.048 4.156.94 5.533 2.196 1.172-.1 2.693-.753 3.589-1.209l.871-.476c-.512 1.383-1.205 2.467-2.272 3.288-.237.181-.472.428-.769.544v.017c1.52-.015 2.773-.701 3.964-1.073v.017c-.625.993-1.472 2.003-2.375 2.725l-1.093.868c.02 1.609-.024 3.145-.324 4.497-1.749 7.86-6.384 13.196-13.72 15.483-2.633.82-6.889 1.157-9.907.408-1.497-.371-2.849-.791-4.117-1.345a16.154 16.154 0 0 1-2.054-1.063l.071.041-.615-.373c.68.02 1.477.208 2.237.084.689-.111 1.364-.081 2-.22 1.584-.348 2.991-.808 4.201-1.517.588-.344 1.48-.747 1.897-1.243-.787.013-1.5-.169-2.084-.375-2.267-.8-3.584-2.271-4.443-4.48.687.076 2.664.253 3.127-.136-.864-.048-1.695-.548-2.289-.92-1.823-1.14-3.308-3.052-3.297-5.995l.717.34c.459.193.924.296 1.469.409.231.048.693.183.957.084h-.035c-.352-.409-.927-.683-1.28-1.124-1.171-1.453-2.267-3.688-1.573-6.352.195-.694.451-1.3.773-1.863l-.021.04.035.016c.136.285.44.495.632.733.597.74 1.333 1.405 2.084 1.992 2.557 2 4.86 3.229 8.56 4.139.937.232 2.021.408 3.143.409-.315-.916-.213-2.4.033-3.287.624-2.232 1.977-3.84 3.964-4.701.441-.19.961-.355 1.5-.468l.055-.01.853-.101z"/></symbol></defs></svg>